# xmcd CD database file
#
# Track frame offsets:
#	150
#	13265
#	24260
#	38214
#	52511
#	68696
#	91638
#	117869
#	129648
#	145104
#	160166
#	177413
#	191724
#	206950
#	220320
#	234267
#	251141
#	267274
#	284192
#	326497
#
# Disc length: 4756 seconds
#
# Revision: 0
# Processed by: cddbd v1.5.2PL0 Copyright (c) Steve Scherf et al.
# Submitted via: CDex 1.51
#
DISCID=23129214
DTITLE=Various Artist - From Burbank To The Bay Area
DYEAR=2005
DGENRE=Northern Soul
TTITLE0=The Ides Of March/Vehicle
TTITLE1=Fred Ramirez/Hold on I'm A Coming
TTITLE2=Hammer/Tuane
TTITLE3=Malo/Oye Mama
TTITLE4=Cold Blood/ Valdez In The country
TTITLE5=Tower Of Power/What Is Hip
TTITLE6=Joe Mama/Love'll Get You High
TTITLE7=Mystic Moods/Cosmic Sea
TTITLE8=Cold Blood/No Way Home
TTITLE9=Seatrain/Flute Thing
TTITLE10=Tower Of Power/Only So Much Oil In The Ground
TTITLE11=Ides Of March/Aire Of Good Feeling
TTITLE12=Kenny Rankin/In The Name Of Love
TTITLE13=Hard Meat/Free Wheel
TTITLE14=Danny Korchmar/For Sentimental Reasons
TTITLE15=Maria Muldaur/Midnight At The Oasis
TTITLE16=Bamboo/Girl Of The Seasons
TTITLE17=Show Of Hands/Moondance
TTITLE18=Labelle/Moonshadow
TTITLE19=Tower Of Power/Ebony Jam
EXTD=YEAR: 2005
EXTT0=
EXTT1=
EXTT2=
EXTT3=
EXTT4=
EXTT5=
EXTT6=
EXTT7=
EXTT8=
EXTT9=
EXTT10=
EXTT11=
EXTT12=
EXTT13=
EXTT14=
EXTT15=
EXTT16=
EXTT17=
EXTT18=
EXTT19=
PLAYORDER=
